<?plantuml 1.2026.2?><svg xmlns="http://www.w3.org/2000/svg" xmlns:xlink="http://www.w3.org/1999/xlink" contentStyleType="text/css" data-diagram-type="DESCRIPTION" height="567px" preserveAspectRatio="none" style="width:1389px;height:567px;background:#FFFFFF;" version="1.1" viewBox="0 0 1389 567" width="1389px" zoomAndPan="magnify"><title>fred-public-data Repository Architecture</title><defs/><g><g class="title" data-source-line="2"><text fill="#000000" font-family="Monospace" font-size="14" font-weight="bold" lengthAdjust="spacing" textLength="280.426" x="546.787" y="24.9659">fred-public-data&#160;Repository&#160;Architecture</text></g><!--cluster Operator + Documentation Surface--><g class="cluster" data-qualified-name="Operator . Documentation Surface" data-source-line="9" id="ent0003"><rect fill="#F8FAFC" height="213" rx="2.5" ry="2.5" style="stroke:#181818;stroke-width:1;" width="304" x="214" y="211.5679"/><text fill="#000000" font-family="Monospace" font-size="14" font-weight="bold" lengthAdjust="spacing" textLength="243.7986" x="244.1007" y="228.5339">Operator&#160;+&#160;Documentation&#160;Surface</text></g><!--cluster Refresh Engine (refresh.py)--><g class="cluster" data-qualified-name="Refresh Engine .refresh.py." data-source-line="15" id="ent0007"><rect fill="#F8FAFC" height="350" rx="2.5" ry="2.5" style="stroke:#181818;stroke-width:1;" width="247" x="634" y="211.5679"/><text fill="#000000" font-family="Monospace" font-size="14" font-weight="bold" lengthAdjust="spacing" textLength="189.3108" x="662.8446" y="228.5339">Refresh&#160;Engine&#160;(refresh.py)</text></g><!--cluster Repository State--><g class="cluster" data-qualified-name="Repository State" data-source-line="22" id="ent0012"><rect fill="#F8FAFC" height="118" rx="2.5" ry="2.5" style="stroke:#181818;stroke-width:1;" width="612" x="14" y="443.5679"/><text fill="#000000" font-family="Monospace" font-size="14" font-weight="bold" lengthAdjust="spacing" textLength="114.1941" x="262.9029" y="460.5339">Repository&#160;State</text></g><!--cluster Verification + Diagrams--><g class="cluster" data-qualified-name="Verification . Diagrams" data-source-line="28" id="ent0016"><rect fill="#F8FAFC" height="276" rx="2.5" ry="2.5" style="stroke:#181818;stroke-width:1;" width="494" x="889" y="44.0679"/><text fill="#000000" font-family="Monospace" font-size="14" font-weight="bold" lengthAdjust="spacing" textLength="162.6829" x="1054.6585" y="61.0339">Verification&#160;+&#160;Diagrams</text></g><!--entity contributor--><g class="entity" data-qualified-name="contributor" data-source-line="7" id="ent0002"><ellipse cx="365.9929" cy="94.0679" fill="#F1F1F1" rx="8" ry="8" style="stroke:#181818;stroke-width:0.5;"/><path d="M365.9929,102.0679 L365.9929,129.0679 M352.9929,110.0679 L378.9929,110.0679 M365.9929,129.0679 L352.9929,144.0679 M365.9929,129.0679 L378.9929,144.0679" fill="none" style="stroke:#181818;stroke-width:0.5;"/><text fill="#000000" font-family="Monospace" font-size="14" lengthAdjust="spacing" textLength="76.9857" x="327.5" y="160.5339">Contributor</text></g><g class="entity" data-qualified-name="GMN39" data-source-line="57" id="ent0040"><path d="M891,502.0679 L891,520.5679 L872.9297,524.5679 L891,528.5679 L891,547.4799 A0,0 0 0 0 891,547.4799 L1159.3902,547.4799 A0,0 0 0 0 1159.3902,547.4799 L1159.3902,512.0679 L1149.3902,502.0679 L891,502.0679 A0,0 0 0 0 891,502.0679" fill="#FEFFDD" style="stroke:#181818;stroke-width:0.5;"/><path d="M1149.3902,502.0679 L1149.3902,512.0679 L1159.3902,512.0679 L1149.3902,502.0679" fill="#FEFFDD" style="stroke:#181818;stroke-width:0.5;"/><text fill="#000000" font-family="Monospace" font-size="13" lengthAdjust="spacing" textLength="224.2762" x="897" y="520.9649">FRED&#160;API&#160;authentication&#160;comes&#160;from</text><text fill="#000000" font-family="Monospace" font-size="13" lengthAdjust="spacing" textLength="247.3902" x="897" y="538.6709">the&#160;FRED_API_KEY&#160;environment&#160;variable.</text></g><!--entity readme--><g class="entity" data-qualified-name="Operator . Documentation Surface.readme" data-source-line="10" id="ent0004"><rect fill="#E2E8F0" height="39.0679" rx="2.5" ry="2.5" style="stroke:#181818;stroke-width:0.5;" width="101.5917" x="222" y="273.0679"/><text fill="#000000" font-family="Monospace" font-size="14" lengthAdjust="spacing" textLength="81.5917" x="232" y="298.0339">README.md</text></g><!--entity guidance--><g class="entity" data-qualified-name="Operator . Documentation Surface.guidance" data-source-line="11" id="ent0005"><rect fill="#E2E8F0" height="58.1358" rx="2.5" ry="2.5" style="stroke:#181818;stroke-width:0.5;" width="166.6214" x="342.5" y="263.5679"/><text fill="#000000" font-family="Monospace" font-size="14" lengthAdjust="spacing" textLength="78.4837" x="352.5" y="288.5339">AGENTS.md</text><text fill="#000000" font-family="Monospace" font-size="14" lengthAdjust="spacing" textLength="146.6214" x="352.5" y="307.6018">LESSONSLEARNED.md</text></g><!--entity docs--><g class="entity" data-qualified-name="Operator . Documentation Surface.docs" data-source-line="12" id="ent0006"><rect fill="#DBEAFE" height="58.1358" rx="2.5" ry="2.5" style="stroke:#181818;stroke-width:0.5;" width="269.479" x="240.5" y="358.5679"/><text fill="#000000" font-family="Monospace" font-size="14" lengthAdjust="spacing" textLength="161.7134" x="250.5" y="383.5339">docs/ARCHITECTURE.md</text><text fill="#000000" font-family="Monospace" font-size="14" lengthAdjust="spacing" textLength="249.479" x="250.5" y="402.6018">contributor-architecture-blueprint.md</text></g><!--entity entry--><g class="entity" data-qualified-name="Refresh Engine .refresh.py..entry" data-source-line="16" id="ent0008"><rect fill="#E0F2FE" height="58.1358" rx="2.5" ry="2.5" style="stroke:#181818;stroke-width:0.5;" width="104.9097" x="767.5" y="263.5679"/><text fill="#000000" font-family="Monospace" font-size="14" lengthAdjust="spacing" textLength="80.4157" x="777.5" y="288.5339">parse_args()</text><text fill="#000000" font-family="Monospace" font-size="14" lengthAdjust="spacing" textLength="84.9097" x="777.5" y="307.6018">ensure_dirs()</text></g><!--entity catalog--><g class="entity" data-qualified-name="Refresh Engine .refresh.py..catalog" data-source-line="17" id="ent0009"><rect fill="#E0F2FE" height="58.1358" rx="2.5" ry="2.5" style="stroke:#181818;stroke-width:0.5;" width="125.5036" x="742" y="358.5679"/><text fill="#000000" font-family="Monospace" font-size="14" lengthAdjust="spacing" textLength="91.3357" x="752" y="383.5339">load_catalog()</text><text fill="#000000" font-family="Monospace" font-size="14" lengthAdjust="spacing" textLength="105.5036" x="752" y="402.6018">series&#160;metadata</text></g><!--entity download--><g class="entity" data-qualified-name="Refresh Engine .refresh.py..download" data-source-line="18" id="ent0010"><rect fill="#E0F2FE" height="58.1358" rx="2.5" ry="2.5" style="stroke:#181818;stroke-width:0.5;" width="152.6775" x="719.5" y="495.5679"/><text fill="#000000" font-family="Monospace" font-size="14" lengthAdjust="spacing" textLength="132.6775" x="729.5" y="520.5339">fetch_observations()</text><text fill="#000000" font-family="Monospace" font-size="14" lengthAdjust="spacing" textLength="120.7215" x="729.5" y="539.6018">FRED&#160;API&#160;requests</text></g><!--entity reporting--><g class="entity" data-qualified-name="Refresh Engine .refresh.py..reporting" data-source-line="19" id="ent0011"><rect fill="#E0F2FE" height="58.1358" rx="2.5" ry="2.5" style="stroke:#181818;stroke-width:0.5;" width="106.9117" x="642.5" y="263.5679"/><text fill="#000000" font-family="Monospace" font-size="14" lengthAdjust="spacing" textLength="55.4398" x="652.5" y="288.5339">plot_all()</text><text fill="#000000" font-family="Monospace" font-size="14" lengthAdjust="spacing" textLength="86.9117" x="652.5" y="307.6018">latest_dates()</text></g><!--entity series_catalog--><g class="entity" data-qualified-name="Repository State.series_catalog" data-source-line="23" id="ent0013"><rect fill="#FCE7F3" height="39.0679" rx="2.5" ry="2.5" style="stroke:#181818;stroke-width:0.5;" width="193.0533" x="424.5" y="505.0679"/><text fill="#000000" font-family="Monospace" font-size="14" lengthAdjust="spacing" textLength="173.0533" x="434.5" y="530.0339">config/series_catalog.toml</text></g><!--entity data--><g class="entity" data-qualified-name="Repository State.data" data-source-line="24" id="ent0014"><rect fill="#DCFCE7" height="58.1358" rx="2.5" ry="2.5" style="stroke:#181818;stroke-width:0.5;" width="202.5313" x="203.5" y="495.5679"/><text fill="#000000" font-family="Monospace" font-size="14" lengthAdjust="spacing" textLength="34.5799" x="213.5" y="520.5339">data/</text><text fill="#000000" font-family="Monospace" font-size="14" lengthAdjust="spacing" textLength="182.5313" x="213.5" y="539.6018">per-series&#160;CSV&#160;observations</text></g><!--entity viz--><g class="entity" data-qualified-name="Repository State.viz" data-source-line="25" id="ent0015"><rect fill="#DCFCE7" height="58.1358" rx="2.5" ry="2.5" style="stroke:#181818;stroke-width:0.5;" width="162.7435" x="22.5" y="495.5679"/><text fill="#000000" font-family="Monospace" font-size="14" lengthAdjust="spacing" textLength="22.5119" x="32.5" y="520.5339">viz/</text><text fill="#000000" font-family="Monospace" font-size="14" lengthAdjust="spacing" textLength="142.7435" x="32.5" y="539.6018">per-series&#160;PNG&#160;charts</text></g><!--entity tests--><g class="entity" data-qualified-name="Verification . Diagrams.tests" data-source-line="29" id="ent0017"><rect fill="#FCE7F3" height="39.0679" rx="2.5" ry="2.5" style="stroke:#181818;stroke-width:0.5;" width="154.5815" x="897.5" y="273.0679"/><text fill="#000000" font-family="Monospace" font-size="14" lengthAdjust="spacing" textLength="134.5815" x="907.5" y="298.0339">tests/test_refresh.py</text></g><!--entity workflows--><g class="entity" data-qualified-name="Verification . Diagrams.workflows" data-source-line="30" id="ent0018"><rect fill="#DCFCE7" height="39.0679" rx="2.5" ry="2.5" style="stroke:#181818;stroke-width:0.5;" width="182.6234" x="1191.5" y="105.5679"/><text fill="#000000" font-family="Monospace" font-size="14" lengthAdjust="spacing" textLength="162.6234" x="1201.5" y="130.5339">.github/workflows/ci.yml</text></g><!--entity diagram_sources--><g class="entity" data-qualified-name="Verification . Diagrams.diagram_sources" data-source-line="31" id="ent0019"><rect fill="#FCE7F3" height="58.1358" rx="2.5" ry="2.5" style="stroke:#181818;stroke-width:0.5;" width="275.695" x="897" y="96.0679"/><text fill="#000000" font-family="Monospace" font-size="14" lengthAdjust="spacing" textLength="255.695" x="907" y="121.0339">docs/diagrams/repo-architecture.puml</text><text fill="#000000" font-family="Monospace" font-size="14" lengthAdjust="spacing" textLength="164.0234" x="907" y="140.1018">repo-architecture.drawio</text></g><g class="link" data-entity-1="ent0002" data-entity-2="ent0004" data-link-type="dependency" id="lnk20"><polygon fill="#181818" points="283.4777,272.9222,291.3738,267.0357,285.9271,268.5633,284.3995,263.1166,283.4777,272.9222" style="stroke:#181818;stroke-width:1;"/><path d="M344.1956,164.8703 C325.0829,198.8828 301.0679,241.6191 286.417,267.6915" fill="none" style="stroke:#181818;stroke-width:1;"/></g><g class="link" data-entity-1="ent0002" data-entity-2="ent0005" data-link-type="dependency" id="lnk21"><polygon fill="#181818" points="408.3658,263.2235,407.32,253.4303,405.8614,258.8959,400.3958,257.4373,408.3658,263.2235" style="stroke:#181818;stroke-width:1;"/><path d="M370.65,164.8915 C372.775,177.4402 375.7887,191.2806 380,203.5679 C387.1544,224.442 395.6491,241.2489 405.3605,258.0304" fill="none" style="stroke:#181818;stroke-width:1;"/></g><g class="link" data-entity-1="ent0005" data-entity-2="ent0006" data-link-type="dependency" id="lnk22"><polygon fill="#181818" points="390.3876,358.5082,398.2223,352.5402,392.7918,354.1241,391.2078,348.6935,390.3876,358.5082" style="stroke:#181818;stroke-width:1;"/><path d="M410.5599,321.7234 C404.1687,333.378 399.6583,341.6027 393.2726,353.2473" fill="none" style="stroke:#181818;stroke-width:1;"/></g><g class="link" data-entity-1="ent0006" data-entity-2="ent0019" data-link-type="dependency" id="lnk23"><polygon fill="#181818" points="896.7343,126.3868,887.6343,122.6199,891.7359,126.5155,887.8403,130.6172,896.7343,126.3868" style="stroke:#181818;stroke-width:1;"/><path d="M466.9097,358.5359 C485.8217,349.2632 504.1598,337.1781 518,321.5679 C560.9884,273.0817 512.0883,223.8927 562,182.5679 C611.5676,141.528 769.6713,129.6599 890.7363,126.5413" fill="none" style="stroke:#181818;stroke-width:1;"/></g><g class="link" data-entity-1="ent0002" data-entity-2="ent0008" data-link-type="dependency" id="lnk24"><polygon fill="#181818" points="804.9842,263.333,803.6811,253.5707,802.3668,259.0728,796.8647,257.7585,804.9842,263.333" style="stroke:#181818;stroke-width:1;"/><path d="M404.5941,126.0085 C478.8186,127.6187 644.175,139.7101 758,211.5679 C778.059,224.2312 791.0628,240.6737 801.8433,258.2207" fill="none" style="stroke:#181818;stroke-width:1;"/></g><g class="link" data-entity-1="ent0008" data-entity-2="ent0009" data-link-type="dependency" id="lnk25"><polygon fill="#181818" points="809.5258,358.5082,814.9078,350.2599,810.3219,353.572,807.0099,348.9861,809.5258,358.5082" style="stroke:#181818;stroke-width:1;"/><path d="M815.4588,321.7234 C813.579,333.378 812.3593,340.9402 810.4812,352.5847" fill="none" style="stroke:#181818;stroke-width:1;"/></g><g class="link" data-entity-1="ent0009" data-entity-2="ent0013" data-link-type="dependency" id="lnk26"><polygon fill="#181818" points="539.5675,505.0104,548.8703,501.7768,543.2165,501.5922,543.4012,495.9383,539.5675,505.0104" style="stroke:#181818;stroke-width:1;"/><path d="M755.4733,416.6673 C740.6263,423.9512 724.021,431.0181 708,435.5679 C674.4771,445.088 662.5194,431.0417 630,443.5679 C594.2955,457.321 564.2475,481.8914 543.9463,500.9085" fill="none" style="stroke:#181818;stroke-width:1;"/></g><g class="link" data-entity-1="ent0009" data-entity-2="ent0010" data-link-type="dependency" id="lnk27"><polygon fill="#181818" points="797.8842,495.3048,802.474,486.5908,798.2168,490.3158,794.4917,486.0586,797.8842,495.3048" style="stroke:#181818;stroke-width:1;"/><path d="M803.1133,416.8683 C801.5773,439.9088 799.8187,466.2876 798.2833,489.318" fill="none" style="stroke:#181818;stroke-width:1;"/></g><g class="link" data-entity-1="ent0010" data-entity-2="ent0014" data-link-type="dependency" id="lnk28"><polygon fill="#181818" points="332.1416,495.504,341.3887,492.1142,335.7326,492.0248,335.822,486.3687,332.1416,495.504" style="stroke:#181818;stroke-width:1;"/><path d="M754.0616,495.5608 C719.9624,473.8382 669.6891,445.9125 621,434.0679 C578.4628,423.7199 465.4847,420.0853 424,434.0679 C388.09,446.1715 358.7435,469.7301 336.4508,491.329" fill="none" style="stroke:#181818;stroke-width:1;"/></g><g class="link" data-entity-1="ent0014" data-entity-2="ent0011" data-link-type="dependency" id="lnk29"><polygon fill="#181818" points="699.9104,321.7832,696.6826,331.0881,700.3315,326.7654,704.6542,330.4143,699.9104,321.7832" style="stroke:#181818;stroke-width:1;"/><path d="M333.4704,495.3791 C354.1883,476.8791 383.9496,454.2084 415,443.5679 C428.3557,438.9912 658.2676,444.7405 669,435.5679 C701.3347,407.9328 703.1931,360.6201 700.4157,327.7619" fill="none" style="stroke:#181818;stroke-width:1;"/></g><g class="link" data-entity-1="ent0011" data-entity-2="ent0015" data-link-type="dependency" id="lnk30"><polygon fill="#181818" points="126.2592,495.3542,135.2308,491.2909,129.5835,491.6194,129.2551,485.972,126.2592,495.3542" style="stroke:#181818;stroke-width:1;"/><path d="M684.4517,321.586 C668.7326,355.5897 637.0591,411.3741 590,435.5679 C550.8606,455.6901 234.9761,427.5133 194,443.5679 C166.9439,454.1686 146.7248,472.361 130.2484,490.8724" fill="none" style="stroke:#181818;stroke-width:1;"/></g><g class="link" data-entity-1="ent0011" data-entity-2="ent0004" data-link-type="dependency" id="lnk31"><polygon fill="#181818" points="281.4839,273.0428,289.0543,266.7429,283.697,268.5593,281.8806,263.2019,281.4839,273.0428" style="stroke:#181818;stroke-width:1;"/><path d="M680.226,263.5007 C668.4796,245.0463 650.5935,222.626 628,211.5679 C529.5853,163.4002 490.9773,203.061 381.5,207.5679 C359.8896,208.4576 351.8999,201.0514 333,211.5679 C308.3793,225.2676 293.6512,248.3928 284.1396,267.6625" fill="none" style="stroke:#181818;stroke-width:1;"/><text fill="#000000" font-family="Monospace" font-size="13" lengthAdjust="spacing" textLength="137.3321" x="383.5" y="198.4649">summary&#160;+&#160;latest&#160;lines</text></g><g class="link" data-entity-1="ent0017" data-entity-2="ent0009" data-link-type="dependency" id="lnk32"><polygon fill="#181818" points="856.3641,358.4687,866.1796,357.6585,860.7506,356.069,862.3401,350.6401,856.3641,358.4687" style="stroke:#181818;stroke-width:1;"/><path d="M941.0065,312.1643 C916.7828,325.4162 889.0523,340.5863 861.628,355.5891" fill="none" style="stroke:#181818;stroke-width:1;stroke-dasharray:7,7;"/></g><g class="link" data-entity-1="ent0017" data-entity-2="ent0010" data-link-type="dependency" id="lnk33"><polygon fill="#181818" points="819.7256,495.2401,828.5531,490.8728,822.9203,491.3939,822.3992,485.7611,819.7256,495.2401" style="stroke:#181818;stroke-width:1;"/><path d="M961.296,312.4177 C942.5746,338.0451 907.8069,385.2001 877,424.5679 C858.1136,448.7026 839.8852,470.9699 823.5593,490.6247" fill="none" style="stroke:#181818;stroke-width:1;stroke-dasharray:7,7;"/></g><g class="link" data-entity-1="ent0017" data-entity-2="ent0011" data-link-type="dependency" id="lnk34"><polygon fill="#181818" points="706.6157,263.5473,713.8737,256.8898,708.6101,258.9623,706.5377,253.6987,706.6157,263.5473" style="stroke:#181818;stroke-width:1;"/><path d="M963.6047,272.993 C947.6863,247.8363 916.1756,205.3487 876,188.0679 C831.4977,168.9261 809.8122,165.3968 767,188.0679 C737.1493,203.8753 719.9127,232.9786 709.009,258.0453" fill="none" style="stroke:#181818;stroke-width:1;stroke-dasharray:7,7;"/></g><g class="link" data-entity-1="ent0018" data-entity-2="ent0017" data-link-type="dependency" id="lnk35"><polygon fill="#181818" points="1009.6845,272.9307,1019.5057,272.1942,1014.0889,270.564,1015.7191,265.1471,1009.6845,272.9307" style="stroke:#181818;stroke-width:1;"/><path d="M1248.565,144.5711 C1189.3852,176.3707 1074.321,238.199 1014.9698,270.0907" fill="none" style="stroke:#181818;stroke-width:1;"/></g><g class="link" data-entity-1="ent0019" data-entity-2="ent0008" data-link-type="dependency" id="lnk36"><polygon fill="#181818" points="838.8429,263.4394,847.3671,258.5061,841.7802,259.3932,840.8931,253.8064,838.8429,263.4394" style="stroke:#181818;stroke-width:1;"/><path d="M974.0143,154.255 C945.38,169.0788 911.7495,188.887 885,211.5679 C867.2558,226.6132 854.2962,242.1525 842.3677,258.584" fill="none" style="stroke:#181818;stroke-width:1;"/></g><g class="link" data-entity-1="ent0019" data-entity-2="ent0014" data-link-type="dependency" id="lnk37"><polygon fill="#181818" points="333.5182,495.5171,342.9022,492.5271,337.2551,492.1951,337.5871,486.548,333.5182,495.5171" style="stroke:#181818;stroke-width:1;"/><path d="M896.9873,138.7722 C794.6239,151.1155 666.7273,173.6709 630,211.5679 C559.6196,284.1899 666.0381,368.8928 590,435.5679 C575.3648,448.401 433.3683,437.1274 415,443.5679 C384.0259,454.4285 358.7424,473.094 338.0025,491.5307" fill="none" style="stroke:#181818;stroke-width:1;"/></g><g class="link" data-entity-1="ent0019" data-entity-2="ent0015" data-link-type="dependency" id="lnk38"><polygon fill="#181818" points="126.7454,495.2753,135.7467,491.2782,130.0971,491.565,129.8103,485.9154,126.7454,495.2753" style="stroke:#181818;stroke-width:1;"/><path d="M896.8198,137.8359 C800.9728,147.4765 682.6527,162.7492 637,182.5679 C527.7669,229.988 617.7461,353.7637 522,424.5679 C463.2966,467.9791 261.4659,415.6579 194,443.5679 C167.3415,454.5963 147.2933,472.5295 130.7675,490.823" fill="none" style="stroke:#181818;stroke-width:1;"/></g><?plantuml-src TLLDZzCm4BtxLmpR2mWrHN00SK0ghGC8AAXTa91MYgQ9arhhsC5sjYg8_yxOIPjcjtlQzSoyUVFn9dtIMAng18K7qtfmjV2eaNdfbO3IYcBQj5ibysc17c4j6kEaD_O0Svllf1UvRwrWxbRg1YtMu7POcBtK5PIetBcd42MsogT6-nNM0huQRLo3-NaCFM-n4Xj_87PBoL5NIZ26EN72Wg1MRjlmFph8XoTZFHAklZN2OeXu3akJjxNG7hqq6ZQjBOdj2YRfctIUBk0lWu43hjPyllpAaxgu2icjm8AAdF2N_4twOXmv_y1NrnkAlD5V-6RpRRNvmkVh5LyUmLKh2zJv8_32v6usNoy-VhhcY-iVQnupdNKpnRFPJhUg5OsLsX-p1pnCbk_vFENitrdhQq4BSplWkf9Qm5FRlPFcyEpHhcdkJcHeA_VqsOqMsX5bLaXBpqX6uwDbJ_YBz2MnZQ3AO97b90jbgW1smahX82WeY2N2U_Vb1ANm-IupMmBUnHt56j8rNyBy-oUA_DqAvrtVz5u7mikP6cLyXae5l49FgAm8V_ecBCdM-Y3A8teyjfEeDwILnnL2AofbDUlwF7QUU5Eho3AsKv85Vvs-khTxSivkD6bqsezhiVa9voFekWt7DbakGefnWZlvPup_lle0-GvjFoVodu3dJVwaw5BctIdGQKYiwE3Sexs66RfPdEGWeyWGFPUxIohfT-rsjZVsjbHcxsQvJ0xzU4x6out5goZwicPXOwCpI9gsLZVweRsmk9Uccrg7pfnfRIw66caEPzS5q-cx_hmVc8-7oquN7AoXD1QlBhx6B0zpnvDXtU64Toy8TXH6i8srCd8TbSvEaezMYc1H5btvlQ3P8ErWf-tVi_JViRVWshf6gkWvT0S2YhuHL7stpYGPwXmifr86qy0yx3Fmn0XsVmF3E2vvkfukE48RJ1jFlm6osdamvL0AmEa3WQtVKVQZgdDJ4xwqfgOWyiJ0Z0App_mNbN4dhT7Xzm3kq4hSAf7GbWe8HFy1?></g></svg>
