<?plantuml 1.2026.2?><svg xmlns="http://www.w3.org/2000/svg" xmlns:xlink="http://www.w3.org/1999/xlink" contentStyleType="text/css" data-diagram-type="DESCRIPTION" height="781px" preserveAspectRatio="none" style="width:510px;height:781px;background:#FFFFFF;" version="1.1" viewBox="0 0 510 781" width="510px" zoomAndPan="magnify"><title>fred-public-data Tooling Integrations</title><defs/><g><g class="title" data-source-line="1"><text fill="#000000" font-family="Monospace" font-size="14" font-weight="bold" lengthAdjust="spacing" textLength="258.1976" x="119.2901" y="24.9659">fred-public-data&#160;Tooling&#160;Integrations</text></g><!--entity source_github_workflows_ci_yml--><g class="entity" data-qualified-name="source_github_workflows_ci_yml" data-source-line="7" id="ent0002"><rect fill="#E0F2FE" height="58.1358" rx="2.5" ry="2.5" style="stroke:#181818;stroke-width:0.5;" width="182.6234" x="39.08" y="462.7079"/><text fill="#000000" font-family="Monospace" font-size="14" lengthAdjust="spacing" textLength="162.6234" x="49.08" y="487.6739">.github/workflows/ci.yml</text><text fill="#000000" font-family="Monospace" font-size="14" lengthAdjust="spacing" textLength="105.3356" x="49.08" y="506.7418">5&#160;detected&#160;tools</text></g><!--entity source_github_workflows_secret_scan_yml--><g class="entity" data-qualified-name="source_github_workflows_secret_scan_yml" data-source-line="8" id="ent0003"><rect fill="#E0F2FE" height="58.1358" rx="2.5" ry="2.5" style="stroke:#181818;stroke-width:0.5;" width="246.7851" x="7" y="672.7079"/><text fill="#000000" font-family="Monospace" font-size="14" lengthAdjust="spacing" textLength="226.7851" x="17" y="697.6739">.github/workflows/secret-scan.yml</text><text fill="#000000" font-family="Monospace" font-size="14" lengthAdjust="spacing" textLength="105.3356" x="17" y="716.7418">2&#160;detected&#160;tools</text></g><!--entity source_scripts_run_tachometer_profile_sh--><g class="entity" data-qualified-name="source_scripts_run_tachometer_profile_sh" data-source-line="9" id="ent0004"><rect fill="#E0F2FE" height="58.1358" rx="2.5" ry="2.5" style="stroke:#181818;stroke-width:0.5;" width="242.2912" x="9.25" y="126.7079"/><text fill="#000000" font-family="Monospace" font-size="14" lengthAdjust="spacing" textLength="222.2912" x="19.25" y="151.6739">scripts/run_tachometer_profile.sh</text><text fill="#000000" font-family="Monospace" font-size="14" lengthAdjust="spacing" textLength="105.3356" x="19.25" y="170.7418">3&#160;detected&#160;tools</text></g><!--entity tool_actions_checkout--><g class="entity" data-qualified-name="tool_actions_checkout" data-source-line="10" id="ent0005"><path d="M343.1221,643.6036 C346.9739,637.4446 351.7165,637.5851 355.446,643.7262 C358.7517,636.9632 363.7534,638.2122 367.792,642.9387 C372.4123,635.7913 376.6729,635.9161 381.3139,642.919 C385.5887,636.6356 389.4213,637.6236 393.5173,643.1045 C396.8488,638.4186 402.0624,638.5722 404.8426,643.7382 C407.5408,638.0805 413.8073,637.5886 417.3845,642.7161 C421.4641,636.6788 426.7619,636.7384 431.135,642.3702 C436.3096,636.9347 441.0712,637.4348 443.9216,644.7085 C446.8926,638.5845 452.3729,638.6686 455.4115,644.6443 C459.3803,638.8108 463.7644,639.5678 467.7744,644.5974 C477.4557,647.007 478.7659,653.1667 473.7682,660.955 C479.2131,669.4122 477.748,674.5155 467.8047,677.3885 C465.5571,683.0599 460.1973,683.5312 457.0214,678.3073 C453.4344,684.8175 447.2723,685.4068 442.6811,679.4636 C439.9476,685.3661 435.9771,686.9815 430.7471,682.2708 C427.4662,688.7747 422.9701,688.5988 418.8901,683.0573 C416.3617,690.4965 409.8443,690.9634 405.836,684.4411 C400.9327,690.8389 395.4736,688.7632 392.9865,682.0695 C389.0506,688.8475 383.1289,688.6921 379.5581,681.7131 C375.0234,687.2315 370.3351,685.7529 367.6615,679.7855 C363.7843,684.903 358.4253,684.5251 355.8814,678.3898 C351.4205,683.8529 345.1986,684.5887 341.9371,677.0986 C334.8391,673.0471 333.4377,665.0642 342.0187,661.0927 C333.7764,655.0645 334.7235,648.5819 343.1221,643.6036" fill="#FEF3C7" style="stroke:#181818;stroke-width:0.5;"/><text fill="#000000" font-family="Monospace" font-size="14" lengthAdjust="spacing" textLength="111.9156" x="348.69" y="665.2039">actions/checkout</text></g><!--entity tool_actions_setup_python--><g class="entity" data-qualified-name="tool_actions_setup_python" data-source-line="11" id="ent0006"><path d="M328.7491,308.7886 C330.9616,302.7338 335.1752,302.672 338.9939,307.2395 C343.8576,301.9098 348.1969,302.5586 351.5897,308.8357 C353.4857,304.2463 358.2836,302.3921 361.7396,307.1398 C365.0991,300.8472 368.7066,300.9538 372.7751,306.4776 C376.3553,300.9911 380.093,301.8893 383.5427,306.6152 C387.3814,302.2736 391.0198,302.602 393.796,307.7618 C396.9714,301.9573 402.0279,300.3045 406.7698,305.9936 C409.8156,301.0228 412.754,301.0813 415.875,305.9238 C420.2081,300.1812 424.5361,300.8219 428.2653,306.5748 C432.308,301.6374 436.1771,302.3012 439.2386,307.6243 C442.0071,302.2513 446.7705,302.9276 449.8799,307.2501 C452.9303,301.606 457.7318,302.3211 460.4625,307.5609 C464.6874,301.9187 468.4872,302.6022 472.5237,307.771 C476.3154,302.5006 480.7672,302.814 483.9676,308.3945 C493.1126,311.0958 494.9441,319.119 488.424,325.8252 C495.4589,333.9209 493.0116,340.4588 482.4214,342.0228 C478.9394,347.6135 475.161,347.5411 471.9767,341.7495 C469.9318,347.6253 464.9928,347.2488 461.5259,343.2552 C458.779,349.1179 454.1512,349.2693 450.2538,344.4719 C447.1327,350.5877 441.3831,350.3233 438.3138,344.4204 C435.8905,349.9861 432.6616,349.365 428.7633,345.9974 C425.6092,351.1305 421.0485,351.7664 417.5369,346.3789 C415.1621,351.7606 409.5019,352.2346 406.1529,347.4721 C402.5716,353.4957 398.0283,353.169 394.341,347.5798 C390.7663,352.1587 385.5735,352.8475 382.8766,346.6464 C379.2268,351.1299 374.9218,349.6187 373.1753,344.6856 C368.7232,348.7163 364.9924,348.3805 361.8381,343.1046 C357.7018,349.2135 353.7878,347.9096 349.9084,342.8306 C347.681,347.2565 343.0523,347.123 340.3988,343.3232 C336.6247,348.9986 331.0449,348.3849 328.5462,342.0631 C318.8093,340.7773 315.2389,333.6095 319.8111,324.9989 C314.8485,316.0828 317.3767,308.6979 328.7491,308.7886" fill="#FEF3C7" style="stroke:#181818;stroke-width:0.5;"/><text fill="#000000" font-family="Monospace" font-size="14" lengthAdjust="spacing" textLength="140.2795" x="334.5" y="329.2039">actions/setup-python</text></g><!--entity tool_gitleaks_gitleaks_action--><g class="entity" data-qualified-name="tool_gitleaks_gitleaks_action" data-source-line="12" id="ent0007"><path d="M321.8066,728.893 C325.947,721.5143 330.177,722.0066 335.4158,727.7541 C339.3275,722.2092 344.1595,722.4052 347.283,728.5539 C350.5392,722.6947 355.0225,722.979 358.3929,728.4418 C361.5446,723.0893 366.4898,721.4346 370.5706,727.4461 C373.2564,721.6664 379.1413,719.9679 382.8772,726.3866 C387.266,720.241 391.9879,722.4888 394.9286,727.897 C397.4946,723.0278 401.0411,722.0315 404.7422,726.733 C408.7749,719.4053 415.2627,721.4639 418.6078,727.4491 C421.058,723.0407 425.717,722.7365 428.5231,727.0442 C432.0761,721.319 436.2952,721.4517 440.2087,726.6588 C444.9545,721.5886 450.9864,721.3013 454.1267,728.4827 C457.125,723.3534 462.1092,722.0673 466.0206,727.4495 C469.1513,722.2607 472.7591,722.0943 476.2436,727.0946 C481.4706,721.34 485.3826,722.1017 488.5387,729.0923 C498.1289,729.8242 501.5936,736.5209 497.8693,745.0418 C503.7777,755.3892 498.9816,762.2098 487.593,762.1943 C484.034,766.7655 480.1213,766.1223 477.2972,761.3818 C474.7918,769.1453 469.7892,769.7071 464.4896,764.0479 C461.3635,769.1547 458.1417,769.0319 454.2266,764.927 C449.7634,770.3778 444.9766,772.0043 440.689,764.7401 C437.2687,770.7809 432.6114,770.7686 428.624,765.3365 C426.189,771.7211 422.8242,772.0873 418.0516,767.6122 C414.3675,773.4364 410.0873,774.0617 405.3591,768.8085 C400.5663,773.4504 396.3759,773.6466 392.9081,767.3062 C389.1428,771.9129 383.8424,771.9518 381.2412,766.0177 C377.7598,771.3919 373.471,770.4789 370.6738,765.3305 C366.9166,772.1314 361.6216,771.4254 358.0792,765.124 C353.7449,769.5215 349.1875,769.0186 346.4251,763.3111 C342.5541,768.9883 337.1276,766.6124 334.9768,761.4879 C332.061,767.9809 326.3037,768.2292 322.5763,762.2979 C312.8682,759.6607 311.3088,751.8995 317.6431,744.7519 C310.6884,738.4309 313.5918,731.2313 321.8066,728.893" fill="#FEF3C7" style="stroke:#181818;stroke-width:0.5;"/><text fill="#000000" font-family="Monospace" font-size="14" lengthAdjust="spacing" textLength="151.7174" x="328.79" y="749.2039">gitleaks/gitleaks-action</text></g><!--entity tool_pip--><g class="entity" data-qualified-name="tool_pip" data-source-line="13" id="ent0008"><path d="M388.5212,391.3066 C392.8655,383.6787 400.3307,382.2161 405.7851,390.0686 C413.1931,381.9547 419.3018,383.9022 423.5905,393.2494 C432.9619,394.5015 437.0219,399.3941 432.187,408.6012 C438.2778,418.3279 432.6044,424.752 422.7161,425.5496 C419.8061,435.5252 414.1152,437.8925 405.7333,431.0874 C397.4173,438.1997 389.6026,434.2965 387.6146,424.3617 C379.802,420.083 377.37,415.4608 384.8787,408.5339 C377.8108,401.3159 378.6957,394.9528 388.5212,391.3066" fill="#FEF3C7" style="stroke:#181818;stroke-width:0.5;"/><text fill="#000000" font-family="Monospace" font-size="14" lengthAdjust="spacing" textLength="20.8319" x="394.23" y="413.2039">pip</text></g><!--entity tool_pre_commit--><g class="entity" data-qualified-name="tool_pre_commit" data-source-line="14" id="ent0009"><path d="M360.8072,475.6907 C363.5931,470.5944 368.169,470.9561 370.9129,475.7338 C375.0071,469.4865 380.3735,470.916 383.8436,476.4206 C387.177,470.9108 390.4473,470.4829 394.2043,476.0235 C397.1095,469.0959 401.6797,469.06 406.4278,474.1488 C410.2556,468.8867 414.6672,470.9919 416.9608,475.7599 C420.1078,470.6092 424.1537,470.3945 427.689,475.3474 C431.5436,469.4826 436.466,470.608 439.5461,476.1523 C442.6273,470.4244 447.2881,471.7286 450.2763,476.2497 C458.5048,480.061 459.1861,487.0747 452.0236,492.5371 C460.044,497.5006 459.525,503.1823 452.1924,508.3101 C448.996,513.7326 444.6913,514.475 440.7497,509.0998 C438.0779,515.7881 432.9986,516.0445 428.471,511.0502 C424.4897,516.4565 421.158,515.7176 417.4246,510.7852 C415.005,516.4961 409.7188,516.6378 406.7036,511.3666 C403.2817,516.1221 398.1644,516.5412 395.0358,511.0332 C390.9978,514.8305 386.2695,515.1152 384.1236,508.959 C381.1116,516.001 374.9541,515.2354 370.9027,510.0863 C367.3468,514.583 361.6987,514.2198 359.3347,508.7087 C350.5279,507.5597 347.5725,499.3143 352.4487,492.3911 C347.7321,482.9882 349.1516,476.8994 360.8072,475.6907" fill="#FEF3C7" style="stroke:#181818;stroke-width:0.5;"/><text fill="#000000" font-family="Monospace" font-size="14" lengthAdjust="spacing" textLength="76.8317" x="366.23" y="497.2039">pre-commit</text></g><!--entity tool_pytest--><g class="entity" data-qualified-name="tool_pytest" data-source-line="15" id="ent0010"><path d="M378.7593,560.7232 C381.4745,553.845 388.5322,552.2415 393.1973,558.5957 C396.4265,552.8063 402.1145,552.5653 406.052,557.7673 C410.0787,551.9968 415.9401,553.0771 418.3294,559.426 C424.0168,552.0824 429.1361,551.6968 433.714,560.4842 C445.4975,560.8154 448.9319,567.7337 442.3709,577.4341 C447.8947,587.0046 444.045,594.185 432.6691,593.6356 C430.9627,601.277 426.139,603.0862 420.3181,597.4684 C418.4912,605.0677 412.135,608.1915 405.4665,603.1624 C400.2818,607.384 393.6424,606.1444 393.005,598.4192 C385.9072,604.3782 379.343,601.7221 378.8206,592.3397 C370.7131,589.5464 367.2782,583.8936 373.6168,576.3877 C366.618,568.929 370.7914,563.2685 378.7593,560.7232" fill="#FEF3C7" style="stroke:#181818;stroke-width:0.5;"/><text fill="#000000" font-family="Monospace" font-size="14" lengthAdjust="spacing" textLength="40.4599" x="384.41" y="581.2039">pytest</text></g><!--entity tool_run--><g class="entity" data-qualified-name="tool_run" data-source-line="16" id="ent0011"><path d="M386.3102,56.8706 C391.1818,47.7293 399.4848,46.1296 406.5451,54.3143 C412.4087,46.5504 420.7335,48.2883 424.1327,56.9525 C433.7223,57.6613 439.4116,62.4144 433.9244,72.5737 C439.1585,82.0202 435.6565,87.44 425.283,88.3228 C425.0446,101.0475 418.7131,106.0421 406.7197,99.8709 C395.813,104.9036 388.6506,103.4176 387.9502,89.6703 C378.2893,88.8356 374.5011,80.744 379.8539,72.7327 C374.7985,64.6057 377.2147,59.2377 386.3102,56.8706" fill="#FEF3C7" style="stroke:#181818;stroke-width:0.5;"/><text fill="#000000" font-family="Monospace" font-size="14" lengthAdjust="spacing" textLength="23.0859" x="393.1" y="77.2039">run</text></g><!--entity tool_summarize--><g class="entity" data-qualified-name="tool_summarize" data-source-line="17" id="ent0012"><path d="M362.1762,139.7082 C367.3705,132.088 372.6079,133.6617 377.0354,140.4963 C380.6519,133.3452 386.3594,133.5795 390.4402,140.0389 C395.2742,132.5754 400.0409,131.3054 406.2459,138.5673 C410.3067,131.1997 417.4065,131.4657 421.0306,139.0007 C425.6151,132.1413 432.5065,132.4184 435.7224,140.3593 C439.3589,134.5447 446.059,133.9823 449.2217,140.8631 C458.5894,140.9338 462.6994,148.7506 457.6093,156.5512 C463.5539,165.1643 459.8813,171.1668 450.2864,172.7589 C446.5044,180.6105 438.9145,180.5184 433.9962,174.0518 C430.6899,182.1689 425.4083,181.6599 420.1495,176.0165 C417.3574,183.3974 410.4739,182.8845 406.4146,177.3659 C401.5856,182.9427 396.6155,183.9218 392.2781,176.8179 C386.7202,182.4858 380.3988,181.7947 377.3019,174.0665 C373.112,181.7863 366.6219,181.8264 362.7476,173.7753 C352.1876,172.9199 350.2551,163.6176 355.6971,156.3045 C350.3833,149.1206 351.4492,140.6298 362.1762,139.7082" fill="#FEF3C7" style="stroke:#181818;stroke-width:0.5;"/><text fill="#000000" font-family="Monospace" font-size="14" lengthAdjust="spacing" textLength="73.2617" x="368.01" y="161.2039">summarize</text></g><!--entity tool_tachometer--><g class="entity" data-qualified-name="tool_tachometer" data-source-line="18" id="ent0013"><path d="M360.9872,223.6907 C363.7607,218.6174 368.316,218.9775 371.0474,223.7338 C375.1284,217.5092 380.4757,218.9347 383.9326,224.4206 C387.2505,218.9344 390.5063,218.5078 394.2478,224.0235 C397.1386,217.1195 401.6921,217.0811 406.4258,222.1488 C410.2408,216.9114 414.6324,219.0105 416.9133,223.7599 C420.0461,218.6305 424.0749,218.416 427.596,223.3474 C431.4374,217.506 436.3407,218.6284 439.4076,224.1523 C442.476,218.4488 447.1169,219.7477 450.0923,224.2497 C458.3208,228.061 459.0021,235.0747 451.8396,240.5371 C459.86,245.5006 459.341,251.1823 452.0084,256.3101 C448.8261,261.712 444.5387,262.4527 440.6112,257.0998 C437.9529,263.7654 432.8921,264.0238 428.378,259.0502 C424.4125,264.4338 421.0946,263.6977 417.3771,258.7852 C414.9691,264.4725 409.7053,264.6148 406.7016,259.3666 C403.2925,264.1032 398.195,264.5201 395.0793,259.0332 C391.0547,262.8121 386.3451,263.0921 384.2126,256.959 C381.213,263.9778 375.0763,263.2166 371.0372,258.0863 C367.4931,262.5639 361.867,262.1996 359.5147,256.7087 C350.7079,255.5597 347.7525,247.3143 352.6287,240.3911 C347.9121,230.9882 349.3316,224.8994 360.9872,223.6907" fill="#FEF3C7" style="stroke:#181818;stroke-width:0.5;"/><text fill="#000000" font-family="Monospace" font-size="14" lengthAdjust="spacing" textLength="76.4677" x="366.41" y="245.2039">tachometer</text></g><g class="entity" data-qualified-name="toolingGraphSummary" data-source-line="30" id="ent0024"><path d="M26.64,46.0679 L26.64,91.4799 L234.1512,91.4799 L234.1512,56.0679 L224.1512,46.0679 L26.64,46.0679" fill="#FEFFDD" style="stroke:#181818;stroke-width:0.5;"/><path d="M224.1512,46.0679 L224.1512,56.0679 L234.1512,56.0679 L224.1512,46.0679" fill="#FEFFDD" style="stroke:#181818;stroke-width:1;"/><text fill="#000000" font-family="Monospace" font-size="13" lengthAdjust="spacing" textLength="186.5112" x="32.64" y="64.9649">Scanned&#160;3&#160;tooling&#160;entrypoints.</text><text fill="#000000" font-family="Monospace" font-size="13" lengthAdjust="spacing" textLength="171.7822" x="32.64" y="82.6709">Detected&#160;9&#160;third-party&#160;tools.</text></g><!--link source_github_workflows_ci_yml to tool_actions_checkout--><g class="link" data-entity-1="ent0002" data-entity-2="ent0005" data-link-type="dependency" data-source-line="19" id="lnk14"><path d="M222.19,504.0379 C279.52,504.0379 342.5,504.0379 342.5,504.0379 C342.5,504.0379 342.5,584.7279 342.5,628.7479" fill="none" id="source_github_workflows_ci_yml-to-tool_actions_checkout" style="stroke:#181818;stroke-width:1;"/><polygon fill="#181818" points="342.5,634.7479,346.5,625.7479,342.5,629.7479,338.5,625.7479,342.5,634.7479" style="stroke:#181818;stroke-width:1;"/></g><!--link source_github_workflows_ci_yml to tool_actions_setup_python--><g class="link" data-entity-1="ent0002" data-entity-2="ent0006" data-link-type="dependency" data-source-line="20" id="lnk15"><path d="M222.13,479.5079 C273.17,479.5079 326.5,479.5079 326.5,479.5079 C326.5,479.5079 326.5,398.8179 326.5,354.7979" fill="none" id="source_github_workflows_ci_yml-to-tool_actions_setup_python" style="stroke:#181818;stroke-width:1;"/><polygon fill="#181818" points="326.5,348.7979,322.5,357.7979,326.5,353.7979,330.5,357.7979,326.5,348.7979" style="stroke:#181818;stroke-width:1;"/></g><!--link source_github_workflows_ci_yml to tool_pip--><g class="link" data-entity-1="ent0002" data-entity-2="ent0008" data-link-type="dependency" data-source-line="21" id="lnk16"><path d="M130.5,462.3979 C130.5,438.1679 130.5,407.7779 130.5,407.7779 C130.5,407.7779 304.61,407.7779 372.85,407.7779" fill="none" id="source_github_workflows_ci_yml-to-tool_pip" style="stroke:#181818;stroke-width:1;"/><polygon fill="#181818" points="378.85,407.7779,369.85,403.7779,373.85,407.7779,369.85,411.7779,378.85,407.7779" style="stroke:#181818;stroke-width:1;"/></g><!--link source_github_workflows_ci_yml to tool_pre_commit--><g class="link" data-entity-1="ent0002" data-entity-2="ent0009" data-link-type="dependency" data-source-line="22" id="lnk17"><path d="M222.1,491.7779 C264.92,491.7779 308.4,491.7779 345.04,491.7779" fill="none" id="source_github_workflows_ci_yml-to-tool_pre_commit" style="stroke:#181818;stroke-width:1;"/><polygon fill="#181818" points="351.04,491.7779,342.04,487.7779,346.04,491.7779,342.04,495.7779,351.04,491.7779" style="stroke:#181818;stroke-width:1;"/></g><!--link source_github_workflows_ci_yml to tool_pytest--><g class="link" data-entity-1="ent0002" data-entity-2="ent0010" data-link-type="dependency" data-source-line="23" id="lnk18"><path d="M130.5,521.1579 C130.5,545.3779 130.5,575.7779 130.5,575.7779 C130.5,575.7779 288.91,575.7779 363.09,575.7779" fill="none" id="source_github_workflows_ci_yml-to-tool_pytest" style="stroke:#181818;stroke-width:1;"/><polygon fill="#181818" points="369.09,575.7779,360.09,571.7779,364.09,575.7779,360.09,579.7779,369.09,575.7779" style="stroke:#181818;stroke-width:1;"/></g><!--link source_github_workflows_secret_scan_yml to tool_actions_checkout--><g class="link" data-entity-1="ent0003" data-entity-2="ent0005" data-link-type="dependency" data-source-line="24" id="lnk19"><path d="M254.28,678.5079 C281.39,678.5079 303.2,678.5079 327.41,678.5079" fill="none" id="source_github_workflows_secret_scan_yml-to-tool_actions_checkout" style="stroke:#181818;stroke-width:1;"/><polygon fill="#181818" points="333.41,678.5079,324.41,674.5079,328.41,678.5079,324.41,682.5079,333.41,678.5079" style="stroke:#181818;stroke-width:1;"/></g><!--link source_github_workflows_secret_scan_yml to tool_gitleaks_gitleaks_action--><g class="link" data-entity-1="ent0003" data-entity-2="ent0007" data-link-type="dependency" data-source-line="25" id="lnk20"><path d="M254.28,725.0379 C274.15,725.0379 288.4,725.0379 307.33,725.0379" fill="none" id="source_github_workflows_secret_scan_yml-to-tool_gitleaks_gitleaks_action" style="stroke:#181818;stroke-width:1;"/><polygon fill="#181818" points="313.33,725.0379,304.33,721.0379,308.33,725.0379,304.33,729.0379,313.33,725.0379" style="stroke:#181818;stroke-width:1;"/></g><!--link source_scripts_run_tachometer_profile_sh to tool_run--><g class="link" data-entity-1="ent0004" data-entity-2="ent0011" data-link-type="dependency" data-source-line="26" id="lnk21"><path d="M242.5,126.5179 C242.5,101.4479 242.5,69.3579 242.5,69.3579 C242.5,69.3579 325.82,69.3579 371.87,69.3579" fill="none" id="source_scripts_run_tachometer_profile_sh-to-tool_run" style="stroke:#181818;stroke-width:1;"/><polygon fill="#181818" points="377.87,69.3579,368.87,65.3579,372.87,69.3579,368.87,73.3579,377.87,69.3579" style="stroke:#181818;stroke-width:1;"/></g><!--link source_scripts_run_tachometer_profile_sh to tool_summarize--><g class="link" data-entity-1="ent0004" data-entity-2="ent0012" data-link-type="dependency" data-source-line="27" id="lnk22"><path d="M251.88,155.7779 C287.27,155.7779 318.07,155.7779 346.68,155.7779" fill="none" id="source_scripts_run_tachometer_profile_sh-to-tool_summarize" style="stroke:#181818;stroke-width:1;"/><polygon fill="#181818" points="352.68,155.7779,343.68,151.7779,347.68,155.7779,343.68,159.7779,352.68,155.7779" style="stroke:#181818;stroke-width:1;"/></g><!--link source_scripts_run_tachometer_profile_sh to tool_tachometer--><g class="link" data-entity-1="ent0004" data-entity-2="ent0013" data-link-type="dependency" data-source-line="28" id="lnk23"><path d="M236.5,185.1579 C236.5,209.3779 236.5,239.7779 236.5,239.7779 C236.5,239.7779 295.77,239.7779 344.98,239.7779" fill="none" id="source_scripts_run_tachometer_profile_sh-to-tool_tachometer" style="stroke:#181818;stroke-width:1;"/><polygon fill="#181818" points="350.98,239.7779,341.98,235.7779,345.98,239.7779,341.98,243.7779,350.98,239.7779" style="stroke:#181818;stroke-width:1;"/></g><?plantuml-src dLLBRzim3BxxLmZfsSdGO1XssMMBXnssItOi8AWoRGkHHK6Y4NY_VhHTF-0qRTARfEz1YQHfCcH1507or3VFrkWqLwJ4NqHhN2b-EO8oA3BeOcAX844eWYah4ha9e3iWYIVZl0gg5h5IEPuxOQ5iX0MIGw4QInaw-gDg4B_HOVHABpaQQuyE71sfvKjrzigLTadXIm6r7WG6gZ2PA6ApBGrLpVFkZE5KM3p7dJRRjhPFxZC79oP2pfT76pT2HH6n2Hha89AJI6eZMIGU3f-on-pmTe08EW2bKIitH7gy9zAWbftwMiYeW_4KTw5nafIki6Rx87t0mbZOnkh9xTy8-IANhyjbhAQOscAJYutgwycPgq2ViA7UhBELBuWS4V6G7RBzzozhPGHgVEfRBewxLFUe7D2rGzareZh5tRX81zNiCWBpOc2idRpniuWt5tY0b5kjDeltyPaSpYxOBK5SCllzciKfdYcyMUEngMiLp3-OMTFHcZkNQYRFPnFxdGvEqs-lb-vkuR9gDuivxxTpf-JVBkchaDpwRTsVZAiErxemkVcZcwoOyW7Lr3SVqCvmuf1WR2yUs3-3yjMnjswJ8x_QyKJPZwZWeHnQZyPHt2O_nedpLL1b0lyvLA1sc3_R15mkElF_?></g></svg>
