<?plantuml 1.2026.2?><svg xmlns="http://www.w3.org/2000/svg" xmlns:xlink="http://www.w3.org/1999/xlink" contentStyleType="text/css" data-diagram-type="DESCRIPTION" height="699px" preserveAspectRatio="none" style="width:492px;height:699px;background:#FFFFFF;" version="1.1" viewBox="0 0 492 699" width="492px" zoomAndPan="magnify"><title>fred-public-data Tooling Integrations</title><defs/><g><g class="title" data-source-line="1"><text fill="#000000" font-family="Monospace" font-size="14" font-weight="bold" lengthAdjust="spacing" textLength="258.1976" x="110.0257" y="24.9659">fred-public-data&#160;Tooling&#160;Integrations</text></g><!--entity source_github_workflows_ci_yml--><g class="entity" data-qualified-name="source_github_workflows_ci_yml" data-source-line="7" id="ent0002"><rect fill="#E0F2FE" height="58.1358" rx="2.5" ry="2.5" style="stroke:#181818;stroke-width:0.5;" width="182.6234" x="36.83" y="462.7079"/><text fill="#000000" font-family="Monospace" font-size="14" lengthAdjust="spacing" textLength="162.6234" x="46.83" y="487.6739">.github/workflows/ci.yml</text><text fill="#000000" font-family="Monospace" font-size="14" lengthAdjust="spacing" textLength="105.3356" x="46.83" y="506.7418">5&#160;detected&#160;tools</text></g><!--entity source_scripts_run_tachometer_profile_sh--><g class="entity" data-qualified-name="source_scripts_run_tachometer_profile_sh" data-source-line="8" id="ent0003"><rect fill="#E0F2FE" height="58.1358" rx="2.5" ry="2.5" style="stroke:#181818;stroke-width:0.5;" width="242.2912" x="7" y="126.7079"/><text fill="#000000" font-family="Monospace" font-size="14" lengthAdjust="spacing" textLength="222.2912" x="17" y="151.6739">scripts/run_tachometer_profile.sh</text><text fill="#000000" font-family="Monospace" font-size="14" lengthAdjust="spacing" textLength="105.3356" x="17" y="170.7418">3&#160;detected&#160;tools</text></g><!--entity tool_actions_checkout--><g class="entity" data-qualified-name="tool_actions_checkout" data-source-line="9" id="ent0004"><path d="M332.9021,307.6036 C336.7539,301.4446 341.4965,301.5851 345.226,307.7262 C348.5317,300.9632 353.5334,302.2122 357.572,306.9387 C362.1923,299.7913 366.4529,299.9161 371.0939,306.919 C375.3687,300.6356 379.2013,301.6236 383.2973,307.1045 C386.6288,302.4186 391.8424,302.5722 394.6226,307.7382 C397.3208,302.0805 403.5873,301.5886 407.1645,306.7161 C411.2441,300.6788 416.5419,300.7384 420.915,306.3702 C426.0896,300.9347 430.8512,301.4348 433.7016,308.7085 C436.6726,302.5845 442.1529,302.6686 445.1915,308.6443 C449.1603,302.8108 453.5444,303.5678 457.5544,308.5974 C467.2357,311.007 468.5459,317.1667 463.5482,324.955 C468.9931,333.4122 467.528,338.5155 457.5847,341.3885 C455.3371,347.0599 449.9773,347.5312 446.8014,342.3073 C443.2144,348.8175 437.0523,349.4068 432.4611,343.4636 C429.7276,349.3661 425.7571,350.9815 420.5271,346.2708 C417.2462,352.7747 412.7501,352.5988 408.6701,347.0573 C406.1417,354.4965 399.6243,354.9634 395.616,348.4411 C390.7127,354.8389 385.2536,352.7632 382.7665,346.0695 C378.8306,352.8475 372.9089,352.6921 369.3381,345.7131 C364.8034,351.2315 360.1151,349.7529 357.4415,343.7855 C353.5643,348.903 348.2053,348.5251 345.6614,342.3898 C341.2005,347.8529 334.9786,348.5887 331.7171,341.0986 C324.6191,337.0471 323.2177,329.0642 331.7987,325.0927 C323.5564,319.0645 324.5035,312.5819 332.9021,307.6036" fill="#FEF3C7" style="stroke:#181818;stroke-width:0.5;"/><text fill="#000000" font-family="Monospace" font-size="14" lengthAdjust="spacing" textLength="111.9156" x="338.47" y="329.2039">actions/checkout</text></g><!--entity tool_actions_setup_python--><g class="entity" data-qualified-name="tool_actions_setup_python" data-source-line="10" id="ent0005"><path d="M318.5391,392.7886 C320.7516,386.7338 324.9652,386.672 328.7839,391.2395 C333.6476,385.9098 337.9869,386.5586 341.3797,392.8357 C343.2757,388.2463 348.0736,386.3921 351.5296,391.1398 C354.8891,384.8472 358.4966,384.9538 362.5651,390.4776 C366.1453,384.9911 369.883,385.8893 373.3327,390.6152 C377.1714,386.2736 380.8098,386.602 383.586,391.7618 C386.7614,385.9573 391.8179,384.3045 396.5598,389.9936 C399.6056,385.0228 402.544,385.0813 405.665,389.9238 C409.9981,384.1812 414.3261,384.8219 418.0553,390.5748 C422.098,385.6374 425.9671,386.3012 429.0286,391.6243 C431.7971,386.2513 436.5605,386.9276 439.6699,391.2501 C442.7203,385.606 447.5218,386.3211 450.2525,391.5609 C454.4774,385.9187 458.2772,386.6022 462.3137,391.771 C466.1054,386.5006 470.5572,386.814 473.7576,392.3945 C482.9026,395.0958 484.7341,403.119 478.214,409.8252 C485.2489,417.9209 482.8016,424.4588 472.2114,426.0228 C468.7294,431.6135 464.951,431.5411 461.7667,425.7495 C459.7218,431.6253 454.7828,431.2488 451.3159,427.2552 C448.569,433.1179 443.9412,433.2693 440.0438,428.4719 C436.9227,434.5877 431.1731,434.3233 428.1038,428.4204 C425.6805,433.9861 422.4516,433.365 418.5533,429.9974 C415.3992,435.1305 410.8385,435.7664 407.3269,430.3789 C404.9521,435.7606 399.2919,436.2346 395.9429,431.4721 C392.3616,437.4957 387.8183,437.169 384.131,431.5798 C380.5563,436.1587 375.3635,436.8475 372.6666,430.6464 C369.0168,435.1299 364.7118,433.6187 362.9653,428.6856 C358.5132,432.7163 354.7824,432.3805 351.6281,427.1046 C347.4918,433.2135 343.5778,431.9096 339.6984,426.8306 C337.471,431.2565 332.8423,431.123 330.1888,427.3232 C326.4147,432.9986 320.8349,432.3849 318.3362,426.0631 C308.5993,424.7773 305.0289,417.6095 309.6011,408.9989 C304.6385,400.0828 307.1667,392.6979 318.5391,392.7886" fill="#FEF3C7" style="stroke:#181818;stroke-width:0.5;"/><text fill="#000000" font-family="Monospace" font-size="14" lengthAdjust="spacing" textLength="140.2795" x="324.29" y="413.2039">actions/setup-python</text></g><!--entity tool_pip--><g class="entity" data-qualified-name="tool_pip" data-source-line="11" id="ent0006"><path d="M378.3012,475.3066 C382.6455,467.6787 390.1107,466.2161 395.5651,474.0686 C402.9731,465.9547 409.0818,467.9022 413.3705,477.2494 C422.7419,478.5015 426.8019,483.3941 421.967,492.6012 C428.0578,502.3279 422.3844,508.752 412.4961,509.5496 C409.5861,519.5252 403.8952,521.8925 395.5133,515.0874 C387.1973,522.1997 379.3826,518.2965 377.3946,508.3617 C369.582,504.083 367.15,499.4608 374.6587,492.5339 C367.5908,485.3159 368.4757,478.9528 378.3012,475.3066" fill="#FEF3C7" style="stroke:#181818;stroke-width:0.5;"/><text fill="#000000" font-family="Monospace" font-size="14" lengthAdjust="spacing" textLength="20.8319" x="384.01" y="497.2039">pip</text></g><!--entity tool_pre_commit--><g class="entity" data-qualified-name="tool_pre_commit" data-source-line="12" id="ent0007"><path d="M350.5972,559.6907 C353.3831,554.5944 357.959,554.9561 360.7029,559.7338 C364.7971,553.4865 370.1635,554.916 373.6336,560.4206 C376.967,554.9108 380.2373,554.4829 383.9943,560.0235 C386.8995,553.0959 391.4697,553.06 396.2178,558.1488 C400.0456,552.8867 404.4572,554.9919 406.7508,559.7599 C409.8978,554.6092 413.9437,554.3945 417.479,559.3474 C421.3336,553.4826 426.256,554.608 429.3361,560.1523 C432.4173,554.4244 437.0781,555.7286 440.0663,560.2497 C448.2948,564.061 448.9761,571.0747 441.8136,576.5371 C449.834,581.5006 449.315,587.1823 441.9824,592.3101 C438.786,597.7326 434.4813,598.475 430.5397,593.0998 C427.8679,599.7881 422.7886,600.0445 418.261,595.0502 C414.2797,600.4565 410.948,599.7176 407.2146,594.7852 C404.795,600.4961 399.5088,600.6378 396.4936,595.3666 C393.0717,600.1221 387.9544,600.5412 384.8258,595.0332 C380.7878,598.8305 376.0595,599.1152 373.9136,592.959 C370.9016,600.001 364.7441,599.2354 360.6927,594.0863 C357.1368,598.583 351.4887,598.2198 349.1247,592.7087 C340.3179,591.5597 337.3625,583.3143 342.2387,576.3911 C337.5221,566.9882 338.9416,560.8994 350.5972,559.6907" fill="#FEF3C7" style="stroke:#181818;stroke-width:0.5;"/><text fill="#000000" font-family="Monospace" font-size="14" lengthAdjust="spacing" textLength="76.8317" x="356.02" y="581.2039">pre-commit</text></g><!--entity tool_pytest--><g class="entity" data-qualified-name="tool_pytest" data-source-line="13" id="ent0008"><path d="M368.5493,644.7232 C371.2645,637.845 378.3222,636.2415 382.9873,642.5957 C386.2165,636.8063 391.9045,636.5653 395.842,641.7673 C399.8687,635.9968 405.7301,637.0771 408.1194,643.426 C413.8068,636.0824 418.9261,635.6968 423.504,644.4842 C435.2875,644.8154 438.7219,651.7337 432.1609,661.4341 C437.6847,671.0046 433.835,678.185 422.4591,677.6356 C420.7527,685.277 415.929,687.0862 410.1081,681.4684 C408.2812,689.0677 401.925,692.1915 395.2565,687.1624 C390.0718,691.384 383.4324,690.1444 382.795,682.4192 C375.6972,688.3782 369.133,685.7221 368.6106,676.3397 C360.5031,673.5464 357.0682,667.8936 363.4068,660.3877 C356.408,652.929 360.5814,647.2685 368.5493,644.7232" fill="#FEF3C7" style="stroke:#181818;stroke-width:0.5;"/><text fill="#000000" font-family="Monospace" font-size="14" lengthAdjust="spacing" textLength="40.4599" x="374.2" y="665.2039">pytest</text></g><!--entity tool_run--><g class="entity" data-qualified-name="tool_run" data-source-line="14" id="ent0009"><path d="M376.1002,56.8706 C380.9718,47.7293 389.2748,46.1296 396.3351,54.3143 C402.1987,46.5504 410.5235,48.2883 413.9227,56.9525 C423.5123,57.6613 429.2016,62.4144 423.7144,72.5737 C428.9485,82.0202 425.4465,87.44 415.073,88.3228 C414.8346,101.0475 408.5031,106.0421 396.5097,99.8709 C385.603,104.9036 378.4406,103.4176 377.7402,89.6703 C368.0793,88.8356 364.2911,80.744 369.6439,72.7327 C364.5885,64.6057 367.0047,59.2377 376.1002,56.8706" fill="#FEF3C7" style="stroke:#181818;stroke-width:0.5;"/><text fill="#000000" font-family="Monospace" font-size="14" lengthAdjust="spacing" textLength="23.0859" x="382.89" y="77.2039">run</text></g><!--entity tool_summarize--><g class="entity" data-qualified-name="tool_summarize" data-source-line="15" id="ent0010"><path d="M351.9662,139.7082 C357.1605,132.088 362.3979,133.6617 366.8254,140.4963 C370.4419,133.3452 376.1494,133.5795 380.2302,140.0389 C385.0642,132.5754 389.8309,131.3054 396.0359,138.5673 C400.0967,131.1997 407.1965,131.4657 410.8206,139.0007 C415.4051,132.1413 422.2965,132.4184 425.5124,140.3593 C429.1489,134.5447 435.849,133.9823 439.0117,140.8631 C448.3794,140.9338 452.4894,148.7506 447.3993,156.5512 C453.3439,165.1643 449.6713,171.1668 440.0764,172.7589 C436.2944,180.6105 428.7045,180.5184 423.7862,174.0518 C420.4799,182.1689 415.1983,181.6599 409.9395,176.0165 C407.1474,183.3974 400.2639,182.8845 396.2046,177.3659 C391.3756,182.9427 386.4055,183.9218 382.0681,176.8179 C376.5102,182.4858 370.1888,181.7947 367.0919,174.0665 C362.902,181.7863 356.4119,181.8264 352.5376,173.7753 C341.9776,172.9199 340.0451,163.6176 345.4871,156.3045 C340.1733,149.1206 341.2392,140.6298 351.9662,139.7082" fill="#FEF3C7" style="stroke:#181818;stroke-width:0.5;"/><text fill="#000000" font-family="Monospace" font-size="14" lengthAdjust="spacing" textLength="73.2617" x="357.8" y="161.2039">summarize</text></g><!--entity tool_tachometer--><g class="entity" data-qualified-name="tool_tachometer" data-source-line="16" id="ent0011"><path d="M350.7772,223.6907 C353.5507,218.6174 358.106,218.9775 360.8374,223.7338 C364.9184,217.5092 370.2657,218.9347 373.7226,224.4206 C377.0405,218.9344 380.2963,218.5078 384.0378,224.0235 C386.9286,217.1195 391.4821,217.0811 396.2158,222.1488 C400.0308,216.9114 404.4224,219.0105 406.7033,223.7599 C409.8361,218.6305 413.8649,218.416 417.386,223.3474 C421.2274,217.506 426.1307,218.6284 429.1976,224.1523 C432.266,218.4488 436.9069,219.7477 439.8823,224.2497 C448.1108,228.061 448.7921,235.0747 441.6296,240.5371 C449.65,245.5006 449.131,251.1823 441.7984,256.3101 C438.6161,261.712 434.3287,262.4527 430.4012,257.0998 C427.7429,263.7654 422.6821,264.0238 418.168,259.0502 C414.2025,264.4338 410.8846,263.6977 407.1671,258.7852 C404.7591,264.4725 399.4953,264.6148 396.4916,259.3666 C393.0825,264.1032 387.985,264.5201 384.8693,259.0332 C380.8447,262.8121 376.1351,263.0921 374.0026,256.959 C371.003,263.9778 364.8663,263.2166 360.8272,258.0863 C357.2831,262.5639 351.657,262.1996 349.3047,256.7087 C340.4979,255.5597 337.5425,247.3143 342.4187,240.3911 C337.7021,230.9882 339.1216,224.8994 350.7772,223.6907" fill="#FEF3C7" style="stroke:#181818;stroke-width:0.5;"/><text fill="#000000" font-family="Monospace" font-size="14" lengthAdjust="spacing" textLength="76.4677" x="356.2" y="245.2039">tachometer</text></g><g class="entity" data-qualified-name="toolingGraphSummary" data-source-line="26" id="ent0020"><path d="M24.39,46.0679 L24.39,91.4799 L231.9012,91.4799 L231.9012,56.0679 L221.9012,46.0679 L24.39,46.0679" fill="#FEFFDD" style="stroke:#181818;stroke-width:0.5;"/><path d="M221.9012,46.0679 L221.9012,56.0679 L231.9012,56.0679 L221.9012,46.0679" fill="#FEFFDD" style="stroke:#181818;stroke-width:1;"/><text fill="#000000" font-family="Monospace" font-size="13" lengthAdjust="spacing" textLength="186.5112" x="30.39" y="64.9649">Scanned&#160;2&#160;tooling&#160;entrypoints.</text><text fill="#000000" font-family="Monospace" font-size="13" lengthAdjust="spacing" textLength="171.7822" x="30.39" y="82.6709">Detected&#160;8&#160;third-party&#160;tools.</text></g><!--link source_github_workflows_ci_yml to tool_actions_checkout--><g class="link" data-entity-1="ent0002" data-entity-2="ent0004" data-link-type="dependency" data-source-line="17" id="lnk12"><path d="M128.57,462.5079 C128.57,414.3779 128.57,323.7779 128.57,323.7779 C128.57,323.7779 238.43,323.7779 317.19,323.7779" fill="none" id="source_github_workflows_ci_yml-to-tool_actions_checkout" style="stroke:#181818;stroke-width:1;"/><polygon fill="#181818" points="323.19,323.7779,314.19,319.7779,318.19,323.7779,314.19,327.7779,323.19,323.7779" style="stroke:#181818;stroke-width:1;"/></g><!--link source_github_workflows_ci_yml to tool_actions_setup_python--><g class="link" data-entity-1="ent0002" data-entity-2="ent0005" data-link-type="dependency" data-source-line="18" id="lnk13"><path d="M219.92,479.5079 C271.48,479.5079 325.57,479.5079 325.57,479.5079 C325.57,479.5079 325.57,459.2079 325.57,438.4579" fill="none" id="source_github_workflows_ci_yml-to-tool_actions_setup_python" style="stroke:#181818;stroke-width:1;"/><polygon fill="#181818" points="325.57,432.4579,321.57,441.4579,325.57,437.4579,329.57,441.4579,325.57,432.4579" style="stroke:#181818;stroke-width:1;"/></g><!--link source_github_workflows_ci_yml to tool_pip--><g class="link" data-entity-1="ent0002" data-entity-2="ent0006" data-link-type="dependency" data-source-line="19" id="lnk14"><path d="M219.79,491.7779 C272.29,491.7779 328.36,491.7779 362.56,491.7779" fill="none" id="source_github_workflows_ci_yml-to-tool_pip" style="stroke:#181818;stroke-width:1;"/><polygon fill="#181818" points="368.56,491.7779,359.56,487.7779,363.56,491.7779,359.56,495.7779,368.56,491.7779" style="stroke:#181818;stroke-width:1;"/></g><!--link source_github_workflows_ci_yml to tool_pre_commit--><g class="link" data-entity-1="ent0002" data-entity-2="ent0007" data-link-type="dependency" data-source-line="20" id="lnk15"><path d="M219.91,504.0379 C282.68,504.0379 354.57,504.0379 354.57,504.0379 C354.57,504.0379 354.57,524.3379 354.57,545.0879" fill="none" id="source_github_workflows_ci_yml-to-tool_pre_commit" style="stroke:#181818;stroke-width:1;"/><polygon fill="#181818" points="354.57,551.0879,358.57,542.0879,354.57,546.0879,350.57,542.0879,354.57,551.0879" style="stroke:#181818;stroke-width:1;"/></g><!--link source_github_workflows_ci_yml to tool_pytest--><g class="link" data-entity-1="ent0002" data-entity-2="ent0008" data-link-type="dependency" data-source-line="21" id="lnk16"><path d="M128.57,521.0379 C128.57,569.1679 128.57,659.7779 128.57,659.7779 C128.57,659.7779 280.41,659.7779 352.85,659.7779" fill="none" id="source_github_workflows_ci_yml-to-tool_pytest" style="stroke:#181818;stroke-width:1;"/><polygon fill="#181818" points="358.85,659.7779,349.85,655.7779,353.85,659.7779,349.85,663.7779,358.85,659.7779" style="stroke:#181818;stroke-width:1;"/></g><!--link source_scripts_run_tachometer_profile_sh to tool_run--><g class="link" data-entity-1="ent0003" data-entity-2="ent0009" data-link-type="dependency" data-source-line="22" id="lnk17"><path d="M240.57,126.5179 C240.57,101.4479 240.57,69.3579 240.57,69.3579 C240.57,69.3579 317.55,69.3579 361.63,69.3579" fill="none" id="source_scripts_run_tachometer_profile_sh-to-tool_run" style="stroke:#181818;stroke-width:1;"/><polygon fill="#181818" points="367.63,69.3579,358.63,65.3579,362.63,69.3579,358.63,73.3579,367.63,69.3579" style="stroke:#181818;stroke-width:1;"/></g><!--link source_scripts_run_tachometer_profile_sh to tool_summarize--><g class="link" data-entity-1="ent0003" data-entity-2="ent0010" data-link-type="dependency" data-source-line="23" id="lnk18"><path d="M249.6,155.7779 C282.25,155.7779 309.84,155.7779 336.44,155.7779" fill="none" id="source_scripts_run_tachometer_profile_sh-to-tool_summarize" style="stroke:#181818;stroke-width:1;"/><polygon fill="#181818" points="342.44,155.7779,333.44,151.7779,337.44,155.7779,333.44,159.7779,342.44,155.7779" style="stroke:#181818;stroke-width:1;"/></g><!--link source_scripts_run_tachometer_profile_sh to tool_tachometer--><g class="link" data-entity-1="ent0003" data-entity-2="ent0011" data-link-type="dependency" data-source-line="24" id="lnk19"><path d="M234.57,185.1579 C234.57,209.3779 234.57,239.7779 234.57,239.7779 C234.57,239.7779 288.31,239.7779 334.76,239.7779" fill="none" id="source_scripts_run_tachometer_profile_sh-to-tool_tachometer" style="stroke:#181818;stroke-width:1;"/><polygon fill="#181818" points="340.76,239.7779,331.76,235.7779,335.76,239.7779,331.76,243.7779,340.76,239.7779" style="stroke:#181818;stroke-width:1;"/></g><?plantuml-src dLGzRzim4DtrAmXdbXmaADefIsCL7PB57GCG37KI2LCyWZp1K7zzJt8i2NAGEXbvx-DExqII9GUYZb3beNjrLkUL8YN-83hh6_7R4pHHaKMVCWSr2K8HRMD8L3Q27e0i7QmFAgfM9ACgF0x2Mha42wI2MdMEIlJqh5eGJ-Wn1QMN78rjG0-UzjJpK8EzyerRKdWee3w0m4W6iuaYDaLZoNIlsoF6G-tmcBRQ5dthNlmtRavCX8g7HvSsGYMHi8iQv4aa9v7KLh98tEnkoxjojsoGTBI1qZPsNfBI1bjsZJ94hAs38faNV_z1fpUvV5ykavbwQeTT9JPg39S_mu0-O4UZsM0htn1vHiHDkIllVtvVAnDG5_BGSrB-KZsYyeIk7O8Diu0F5tY4dBVLsiLKN9EdsWMx9qXBvdXUipYOcSA7DPwwjbNH_eMPDPNMt3dWcJpN9lP_Ve8yVtW_y4yBbrbVBURSh-TEuLyl6RUGNVrxJaAcV44rxUeBsXdEF1ASLyhlpA-eWjcFrdssryfxldjtPrJmMnBxWDPJAhB7yzty8SZOo0-UYjIVRcgHWQ_4OFuF?></g></svg>
